<?xml version="1.0" standalone="no"?>
<!DOCTYPE svg PUBLIC "-//W3C//DTD SVG 20010904//EN"
 "http://www.w3.org/TR/2001/REC-SVG-20010904/DTD/svg10.dtd">
<svg version="1.0" xmlns="http://www.w3.org/2000/svg"
 width="225.000000pt" height="225.000000pt" viewBox="0 0 225.000000 225.000000"
 preserveAspectRatio="xMidYMid meet">

<g transform="translate(0.000000,225.000000) scale(0.100000,-0.100000)"
fill="#000000" stroke="none">
<path d="M1067 1589 c-129 -30 -166 -99 -187 -352 -6 -74 -14 -147 -18 -162
l-8 -27 -144 -3 c-110 -2 -164 -7 -222 -23 -92 -25 -158 -57 -158 -77 0 -19 0
-19 127 12 146 36 287 38 354 5 48 -23 99 -70 103 -94 1 -8 11 -27 23 -43 l21
-29 12 44 c7 24 9 62 6 83 -8 45 -32 97 -46 97 -6 0 -8 10 -5 23 3 12 9 99 14
194 10 205 26 253 94 283 36 16 43 17 62 4 12 -8 30 -12 39 -8 22 8 31 50 16
69 -14 17 -27 17 -83 4z"/>
<path d="M257 1434 c-127 -39 -105 -164 57 -321 38 -37 62 -56 53 -41 -9 15
-17 32 -17 37 0 10 78 51 98 51 6 0 22 -19 36 -42 29 -48 33 -45 11 9 -21 50
-20 52 24 59 32 5 38 10 34 25 -6 21 -15 23 -59 10 -28 -8 -33 -6 -43 15 -15
33 -15 32 22 42 42 11 33 27 -17 28 -34 0 -42 6 -72 47 l-34 46 35 7 c19 3 32
10 29 15 -3 5 11 9 30 9 20 0 36 -4 36 -10 0 -5 23 -10 50 -10 28 0 50 5 50
10 0 13 43 13 56 0 6 -6 41 -10 80 -8 l69 3 -125 18 c-152 21 -336 21 -403 1z
m67 -103 l38 -39 -38 -11 c-56 -16 -62 -14 -69 18 -6 29 8 71 23 71 5 0 25
-18 46 -39z m60 -148 c-63 -28 -69 -28 -82 2 -18 39 -16 43 36 58 46 14 47 14
71 -12 l24 -26 -49 -22z"/>
<path d="M1030 1275 l0 -155 95 0 c94 0 95 0 95 25 0 23 -4 24 -62 27 l-63 3
-3 38 -3 37 60 0 c58 0 61 1 61 25 0 22 -4 24 -57 27 -57 3 -58 3 -61 36 l-3
32 60 0 61 0 0 30 0 30 -90 0 -90 0 0 -155z"/>
<path d="M1345 1418 c-3 -7 -25 -77 -49 -155 l-43 -143 33 0 c30 0 34 4 44 40
11 40 11 40 60 40 48 0 49 0 56 -36 7 -38 19 -47 57 -42 l24 3 -47 150 -46
150 -42 3 c-28 2 -44 -1 -47 -10z m63 -104 c17 -60 16 -64 -24 -64 -29 0 -35
3 -30 16 4 9 11 37 18 61 12 50 19 47 36 -13z"/>
<path d="M1624 1420 c-28 -11 -54 -48 -54 -78 0 -40 20 -63 76 -88 44 -19 54
-28 54 -48 0 -31 -26 -40 -86 -31 -42 6 -44 5 -44 -18 0 -30 16 -37 78 -37 86
0 138 54 116 119 -6 17 -28 36 -66 56 -32 17 -60 37 -63 45 -10 24 25 42 71
35 38 -5 42 -4 46 19 4 19 0 26 -16 30 -30 8 -87 6 -112 -4z"/>
<path d="M1849 1336 c45 -84 51 -101 51 -155 l0 -61 30 0 30 0 0 64 c0 58 5
72 50 152 l49 89 -31 3 c-37 4 -39 2 -68 -70 -13 -32 -26 -58 -29 -58 -3 0
-17 28 -31 63 -24 60 -27 62 -64 65 l-38 3 51 -95z"/>
<path d="M550 1310 c0 -5 18 -10 40 -10 22 0 40 5 40 10 0 6 -18 10 -40 10
-22 0 -40 -4 -40 -10z"/>
<path d="M693 1313 c15 -2 39 -2 55 0 15 2 2 4 -28 4 -30 0 -43 -2 -27 -4z"/>
<path d="M580 1226 c0 -22 12 -26 53 -19 55 8 49 33 -8 33 -33 0 -45 -4 -45
-14z"/>
<path d="M690 1220 c0 -5 17 -10 38 -9 30 0 33 2 17 9 -28 12 -55 12 -55 0z"/>
<path d="M1155 1020 c-17 -19 -15 -70 3 -70 4 0 22 -9 40 -20 29 -18 32 -23
21 -36 -9 -11 -22 -14 -46 -9 -26 5 -33 3 -33 -9 0 -19 41 -31 75 -22 30 8 58
47 49 70 -4 9 -24 26 -46 37 -45 23 -46 44 -2 44 27 0 43 10 44 28 0 4 -20 7
-43 7 -31 0 -49 -6 -62 -20z"/>
<path d="M1310 945 c0 -88 1 -95 20 -95 17 0 20 7 20 40 0 39 1 40 35 40 34 0
35 -1 35 -40 0 -33 3 -40 20 -40 19 0 20 7 20 95 0 88 -1 95 -20 95 -16 0 -20
-7 -20 -35 0 -33 -2 -35 -35 -35 -33 0 -35 2 -35 35 0 28 -4 35 -20 35 -19 0
-20 -7 -20 -95z"/>
<path d="M1529 1014 c-36 -38 -34 -107 4 -140 32 -27 66 -30 106 -9 34 17 41
33 41 86 0 54 -34 89 -88 89 -28 0 -45 -7 -63 -26z m101 -23 c27 -52 -5 -120
-50 -106 -38 12 -48 75 -18 113 16 19 56 14 68 -7z"/>
<path d="M1720 945 c0 -88 1 -95 20 -95 16 0 20 7 20 35 0 29 4 35 21 35 23 0
60 18 71 34 13 20 8 53 -10 69 -12 11 -36 17 -70 17 l-52 0 0 -95z m96 50 c8
-20 -13 -45 -37 -45 -14 0 -19 7 -19 30 0 25 4 30 25 30 14 0 28 -7 31 -15z"/>
<path d="M545 914 c-78 -19 -105 -28 -105 -35 0 -11 9 -12 140 -10 58 1 128
-2 157 -8 41 -8 58 -7 81 5 22 11 36 12 56 4 15 -5 25 -6 22 -1 -15 23 -106
43 -216 46 -63 2 -124 2 -135 -1z"/>
<path d="M384 836 c-14 -23 -14 -28 2 -61 17 -36 57 -65 92 -65 23 0 52 30 52
54 0 76 -108 129 -146 72z m94 -22 c33 -22 27 -69 -8 -69 -33 0 -60 46 -41 69
17 20 21 20 49 0z"/>
<path d="M798 835 c-34 -76 103 -168 142 -95 25 48 -32 120 -96 120 -27 0 -37
-5 -46 -25z m100 -21 c16 -11 22 -24 20 -42 -4 -33 -32 -41 -59 -16 -22 20
-25 44 -7 62 15 15 19 15 46 -4z"/>
</g>
</svg>
